<svg id="Polywave" xmlns="http://www.w3.org/2000/svg" viewBox="0 0 1191 1074"><title>Artboard 2</title><g id="Layer_2" data-name="Layer 2"><path d="M294.81,788.62a193.74,193.74,0,0,1-34-3.18,402.76,402.76,0,0,1-105.6-187.53c14.07,22.64,38.58,45.33,56.67,62.08q3.33,3.07,6.37,5.92c22.1,20.65,51.13,33,77.65,33a80.2,80.2,0,0,0,30.26-5.76,163,163,0,0,0,17.36-8.75c10.5-5.83,21.36-11.86,33.36-12.56.81-.05,1.63-.07,2.45-.07,8.94,0,17.77,2.82,26.31,5.54,7.29,2.33,14.83,4.73,22.51,5.44,1.73.16,3.48.25,5.21.25,19.77,0,37.86-10.53,55.36-20.7,14.74-8.57,30-17.44,46.46-20.35a79.58,79.58,0,0,1,13.86-1.15c11.57,0,23.4,2.16,34.85,4.25,9.58,1.75,19.48,3.56,29.28,4.13,2.21.12,4.46.19,6.68.19a118.41,118.41,0,0,0,59.68-16.11c6.19-3.61,12.13-7.85,17.88-12,8.08-5.76,16.44-11.72,25.54-16,16.1-7.52,34.2-9.62,51.7-11.65,13.56-1.57,27.59-3.2,40.75-7.32,40.35-12.66,74.34-51,88.71-100,14.71-50.22,21.17-94.34,19.2-131.23A401.48,401.48,0,0,1,950.5,501a407.39,407.39,0,0,1-7,75.44c-3.64,6.1-7.33,12-10.91,17.7-2.24,3.58-4.4,7-6.4,10.3-14,22.88-34.32,37.84-55.76,41a79.19,79.19,0,0,1-11.77.79c-4.68,0-9.46-.29-14.08-.57s-9.41-.58-14.08-.58a69.36,69.36,0,0,0-17,1.82c-14.8,3.66-27,13.56-38.7,23.13-10.65,8.68-21.66,17.65-34.64,22a66.86,66.86,0,0,1-21.5,3.25c-11.92,0-24.34-2.46-36.35-4.84s-24.72-4.9-36.93-4.9A73,73,0,0,0,628,687.5c-18.93,4.56-34.29,17.55-49.14,30.12-14.33,12.12-29.15,24.65-47.13,29.57a76.09,76.09,0,0,1-20.34,2.54c-11.31,0-23-2-34.32-3.86C465.64,744,453.79,742,442.17,742a89.63,89.63,0,0,0-11.61.73c-19.09,2.52-36.35,12-53,21.19-8.46,4.65-17.21,9.45-26.11,13.31A139.51,139.51,0,0,1,294.81,788.62Z"/><path d="M924,358.2A401.34,401.34,0,0,1,950,501a406.3,406.3,0,0,1-7,75.26c-3.62,6.06-7.29,11.92-10.84,17.59-2.27,3.63-4.41,7-6.42,10.33-13.92,22.75-34.11,37.62-55.41,40.8a79.5,79.5,0,0,1-11.69.78c-4.66,0-9.43-.29-14-.57s-9.42-.58-14.11-.58a69.92,69.92,0,0,0-17.12,1.83c-14.91,3.69-27.1,13.63-38.9,23.23-10.61,8.65-21.59,17.59-34.47,21.9a66.48,66.48,0,0,1-21.35,3.23c-11.87,0-24.26-2.45-36.25-4.83-12.18-2.41-24.77-4.91-37-4.91a73.48,73.48,0,0,0-17.42,2c-19,4.6-34.45,17.63-49.35,30.23-14.28,12.08-29.06,24.57-46.93,29.47a76,76,0,0,1-20.21,2.52c-11.27,0-22.95-2-34.24-3.85-11.48-1.93-23.36-3.92-35-3.92a87,87,0,0,0-11.67.74c-19.19,2.53-36.49,12-53.23,21.24-8.45,4.64-17.18,9.44-26.06,13.29a138.9,138.9,0,0,1-56.4,11.39A193.8,193.8,0,0,1,261.06,785,402.36,402.36,0,0,1,156.45,600.76c14.31,21.83,37.68,43.47,55.1,59.6l6.37,5.91c22.19,20.74,51.35,33.12,78,33.12a80.42,80.42,0,0,0,30.45-5.8,164.81,164.81,0,0,0,17.41-8.77c10.94-6.07,21.27-11.81,33.15-12.5.8-.05,1.61-.07,2.42-.07,8.86,0,17.65,2.8,26.16,5.52,7.31,2.33,14.88,4.74,22.62,5.46,1.73.16,3.5.25,5.25.25,19.9,0,38.06-10.56,55.61-20.77,14.7-8.55,29.91-17.39,46.3-20.28a78.54,78.54,0,0,1,13.77-1.15c11.52,0,23.33,2.16,34.76,4.24,9.59,1.76,19.51,3.57,29.34,4.14,2.22.12,4.48.19,6.71.19a118.85,118.85,0,0,0,59.93-16.18c6.21-3.62,12.17-7.87,17.92-12,8.06-5.75,16.4-11.69,25.47-15.93,16-7.49,34.07-9.58,51.53-11.6,13.59-1.58,27.65-3.2,40.85-7.34,40.51-12.71,74.62-51.15,89-100.33,14.32-48.87,20.82-92,19.37-128.3M922.63,352c3,44-6.68,92.2-19,134.21-13,44.38-44.26,85.81-88.38,99.65-30.15,9.45-63.89,5.62-92.51,19-15.62,7.3-28.57,19.24-43.46,27.94a118.52,118.52,0,0,1-59.43,16c-2.22,0-4.43-.06-6.65-.19-21.51-1.25-42.89-8.38-64.16-8.38a79.89,79.89,0,0,0-13.94,1.16c-36.35,6.41-65.66,41-101.74,41q-2.55,0-5.16-.24c-16.68-1.55-32.25-11-48.87-11-.82,0-1.65,0-2.48.07-18.5,1.08-33.71,14.37-50.88,21.34a79.35,79.35,0,0,1-30.07,5.73c-28,0-56.45-13.36-77.31-32.85-19.5-18.22-49.36-44.47-64.63-70.68a403.4,403.4,0,0,0,106.6,191,196.09,196.09,0,0,0,34.24,3.21,140.72,140.72,0,0,0,56.8-11.47c26.5-11.49,50.38-30.69,79-34.46a87.33,87.33,0,0,1,11.54-.73c23.08,0,46.48,7.77,69.26,7.77a76.9,76.9,0,0,0,20.47-2.56c36.75-10.06,59.22-50.75,96.25-59.69a73.38,73.38,0,0,1,17.19-1.92c24.26,0,49.28,9.74,73.28,9.74a67.68,67.68,0,0,0,21.66-3.28c27.41-9.16,45.24-38.16,73.3-45.11a70,70,0,0,1,16.88-1.8c9.33,0,18.79,1.15,28.16,1.15a80.75,80.75,0,0,0,11.84-.79c23.72-3.54,43.6-20.81,56.11-41.27,5.16-8.43,11.39-18.06,17.36-28.08A406.24,406.24,0,0,0,922.63,352Z"/><path d="M225.81,422.62c-20.95,0-43.18-3.85-72-12.5,20.11-87.39,69.83-166.68,140-223.32A403.54,403.54,0,0,1,855.55,241c-13.93,21.42-33.66,35.45-54.16,38.5a79.19,79.19,0,0,1-11.77.79c-4.68,0-9.46-.29-14.08-.57s-9.41-.58-14.08-.58a69.36,69.36,0,0,0-17,1.82c-14.8,3.66-27,13.56-38.7,23.13-10.65,8.68-21.66,17.65-34.64,22a66.86,66.86,0,0,1-21.5,3.25c-11.92,0-24.34-2.46-36.35-4.84s-24.72-4.9-36.93-4.9A73,73,0,0,0,559,321.5c-18.93,4.56-34.29,17.55-49.14,30.12-14.33,12.12-29.15,24.65-47.13,29.57a76.09,76.09,0,0,1-20.34,2.54c-11.31,0-23-2-34.32-3.86C396.64,378,384.79,376,373.17,376a87.89,87.89,0,0,0-11.61.73c-19.09,2.52-36.35,12-53,21.18-8.46,4.65-17.21,9.46-26.11,13.32a139.49,139.49,0,0,1-56.59,11.43Z"/><path d="M547,98A402.38,402.38,0,0,1,854.92,241c-13.84,21.12-33.34,34.95-53.61,38a79.5,79.5,0,0,1-11.69.78c-4.66,0-9.43-.29-14-.57s-9.42-.58-14.11-.58a69.92,69.92,0,0,0-17.12,1.83c-14.91,3.69-27.1,13.63-38.9,23.23-10.61,8.65-21.59,17.59-34.47,21.9a66.48,66.48,0,0,1-21.35,3.23c-11.87,0-24.26-2.45-36.25-4.83-12.18-2.41-24.77-4.91-37-4.91A73.48,73.48,0,0,0,558.92,321c-19,4.6-34.45,17.63-49.35,30.23-14.28,12.08-29.06,24.57-46.93,29.47a76,76,0,0,1-20.21,2.52c-11.27,0-22.95-2-34.24-3.85-11.48-1.93-23.36-3.92-35-3.92a87,87,0,0,0-11.67.74c-19.19,2.53-36.49,12-53.23,21.24-8.45,4.64-17.18,9.44-26.06,13.29a138.9,138.9,0,0,1-56.4,11.39c-20.79,0-42.86-3.81-71.44-12.34a399.85,399.85,0,0,1,51.54-123.5A402.28,402.28,0,0,1,547,98m0-1C355,97,194.29,230.93,153.19,410.47c23.74,7.13,48.05,12.65,72.62,12.65a140.72,140.72,0,0,0,56.8-11.47c26.5-11.49,50.38-30.69,79-34.46a87.33,87.33,0,0,1,11.54-.73c23.08,0,46.48,7.77,69.26,7.77a76.9,76.9,0,0,0,20.47-2.56c36.75-10.06,59.22-50.75,96.25-59.69a73.38,73.38,0,0,1,17.19-1.92c24.26,0,49.28,9.74,73.28,9.74a67.68,67.68,0,0,0,21.66-3.28c27.41-9.16,45.24-38.16,73.3-45.11a70,70,0,0,1,16.88-1.8c9.33,0,18.79,1.15,28.16,1.15a80.75,80.75,0,0,0,11.84-.79c22.85-3.41,42.14-19.57,54.71-39C782.06,152.92,671.06,97,547,97Z"/><path d="M547,904.5A400.81,400.81,0,0,1,388.05,872c10.48-5.77,20.11-10.53,30.84-11.16.81-.05,1.63-.07,2.45-.07,8.94,0,17.77,2.82,26.31,5.54,7.29,2.33,14.83,4.73,22.51,5.44,1.73.16,3.48.25,5.21.24,19.77,0,37.86-10.52,55.36-20.69,14.74-8.57,30-17.44,46.46-20.35a79.58,79.58,0,0,1,13.86-1.15c11.57,0,23.4,2.16,34.85,4.25,9.58,1.75,19.48,3.56,29.28,4.13,2.21.12,4.46.19,6.68.19a118.41,118.41,0,0,0,59.68-16.11c6.19-3.61,12.13-7.85,17.88-12,8.08-5.76,16.44-11.72,25.54-16,16.1-7.52,34.2-9.62,51.7-11.65,7.28-.84,14.79-1.71,22.12-3A402.34,402.34,0,0,1,547,904.5Z"/><path d="M837.37,780.45A403.36,403.36,0,0,1,389.2,871.92c10.07-5.52,19.39-10,29.72-10.6.8-.05,1.61-.07,2.42-.07,8.86,0,17.65,2.8,26.16,5.52,7.31,2.33,14.88,4.74,22.62,5.46,1.73.16,3.5.25,5.25.25,19.9,0,38.06-10.56,55.61-20.77,14.7-8.55,29.91-17.39,46.3-20.28a78.54,78.54,0,0,1,13.77-1.15c11.52,0,23.33,2.16,34.76,4.24,9.59,1.76,19.51,3.57,29.34,4.14,2.22.12,4.48.19,6.71.19a118.85,118.85,0,0,0,59.93-16.18c6.21-3.62,12.17-7.87,17.92-12,8.06-5.75,16.4-11.69,25.47-15.93,16-7.49,34.08-9.58,51.54-11.6,6.79-.79,13.79-1.6,20.65-2.72m2.81-1.5c-25.4,4.54-52.11,4-75.43,14.92-15.62,7.3-28.57,19.24-43.46,27.94a118.52,118.52,0,0,1-59.43,16c-2.22,0-4.43-.06-6.65-.19-21.51-1.25-42.89-8.38-64.16-8.38a79.89,79.89,0,0,0-13.94,1.16c-36.35,6.41-65.66,41-101.74,41q-2.55,0-5.16-.24c-16.68-1.55-32.26-11-48.87-11-.82,0-1.65,0-2.48.07-11.49.67-21.72,6.06-31.94,11.72A404.38,404.38,0,0,0,840.18,779Z"/><path d="M252.81,599.62c-36,0-72.62-12.28-102.08-22.2a408,408,0,0,1-3.48-131.66c12.19,13.67,26.27,26.7,37.62,37.22l6.39,5.93c22.1,20.65,51.13,33,77.65,33a80,80,0,0,0,30.26-5.76,163,163,0,0,0,17.36-8.75c10.5-5.83,21.36-11.86,33.36-12.56.81-.05,1.63-.07,2.45-.07,8.94,0,17.77,2.82,26.31,5.54,7.29,2.33,14.83,4.73,22.51,5.44,1.73.16,3.48.25,5.21.25,19.77,0,37.86-10.53,55.36-20.7,14.74-8.58,30-17.44,46.46-20.35a79.58,79.58,0,0,1,13.86-1.15c11.57,0,23.4,2.16,34.85,4.25,9.58,1.75,19.48,3.56,29.28,4.13,2.21.12,4.46.19,6.68.19a118.41,118.41,0,0,0,59.68-16.11c6.19-3.61,12.13-7.85,17.88-11.95,8.08-5.76,16.44-11.72,25.54-16,16.1-7.52,34.2-9.62,51.7-11.65,13.56-1.57,27.59-3.2,40.75-7.32,40.35-12.66,74.34-51,88.71-100,2.89-9.87,5.49-19.62,7.75-29A402.94,402.94,0,0,1,920.49,348c-5.78,18.55-18.61,39-29.94,57.1-2.24,3.58-4.4,7-6.4,10.3-14,22.88-34.32,37.84-55.76,41a79.19,79.19,0,0,1-11.77.79c-4.68,0-9.46-.29-14.08-.57s-9.41-.58-14.08-.58a69.36,69.36,0,0,0-17,1.82c-14.8,3.66-27,13.56-38.7,23.13-10.65,8.68-21.66,17.65-34.64,22a66.86,66.86,0,0,1-21.5,3.25c-11.92,0-24.34-2.46-36.35-4.84s-24.72-4.9-36.93-4.9A73,73,0,0,0,586,498.5c-18.93,4.56-34.29,17.55-49.14,30.12-14.33,12.12-29.15,24.65-47.13,29.57a76.09,76.09,0,0,1-20.34,2.54c-11.31,0-23-2-34.32-3.86C423.64,555,411.79,553,400.17,553a89.63,89.63,0,0,0-11.61.73c-19.09,2.52-36.35,12-53,21.18-8.46,4.66-17.21,9.46-26.11,13.32a139.51,139.51,0,0,1-56.6,11.43Z"/><path d="M885.09,281.58A402.87,402.87,0,0,1,920,348.06c-5.79,18.44-18.56,38.82-29.83,56.81-2.27,3.62-4.41,7-6.41,10.31-13.92,22.75-34.11,37.62-55.41,40.8a79.5,79.5,0,0,1-11.69.78c-4.66,0-9.43-.29-14-.57s-9.42-.58-14.11-.58a69.92,69.92,0,0,0-17.12,1.83c-14.91,3.69-27.1,13.63-38.9,23.23-10.61,8.65-21.59,17.59-34.47,21.9a66.48,66.48,0,0,1-21.35,3.23c-11.87,0-24.26-2.45-36.25-4.83-12.18-2.41-24.77-4.91-37-4.91A73.48,73.48,0,0,0,585.92,498c-19,4.6-34.45,17.63-49.35,30.23-14.28,12.08-29.06,24.57-46.93,29.47a76,76,0,0,1-20.21,2.52c-11.27,0-22.95-2-34.24-3.85-11.48-1.93-23.36-3.92-35-3.92a87,87,0,0,0-11.67.74c-19.19,2.53-36.49,12-53.23,21.24-8.45,4.64-17.18,9.44-26.06,13.29a138.9,138.9,0,0,1-56.4,11.39c-35.82,0-72.26-12.19-101.64-22.08A407.42,407.42,0,0,1,147.6,446.9c12,13.39,25.8,26.13,36.93,36.44l6.39,5.93c22.19,20.74,51.35,33.12,78,33.12a80.42,80.42,0,0,0,30.45-5.8,164.81,164.81,0,0,0,17.41-8.77c10.94-6.07,21.27-11.81,33.15-12.5.8-.05,1.61-.07,2.42-.07,8.86,0,17.65,2.8,26.16,5.52,7.31,2.33,14.88,4.74,22.62,5.46,1.73.16,3.5.25,5.25.25,19.9,0,38.06-10.56,55.61-20.77,14.7-8.55,29.91-17.39,46.3-20.28a78.54,78.54,0,0,1,13.77-1.15c11.52,0,23.33,2.16,34.76,4.24,9.59,1.76,19.51,3.57,29.34,4.14,2.22.12,4.48.19,6.71.19a118.85,118.85,0,0,0,59.93-16.18c6.21-3.62,12.17-7.87,17.92-12,8.06-5.75,16.4-11.69,25.47-15.93,16-7.49,34.07-9.58,51.53-11.6,13.59-1.58,27.65-3.2,40.85-7.34,40.51-12.71,74.62-51.15,89-100.33,2.78-9.49,5.29-18.87,7.49-27.92m-.44-2.49c-2.44,10.29-5.16,20.37-8,30.13-13,44.38-44.26,85.81-88.38,99.65-30.15,9.45-63.89,5.62-92.51,19-15.62,7.3-28.57,19.24-43.46,27.94a118.52,118.52,0,0,1-59.43,16c-2.22,0-4.43-.06-6.65-.19-21.51-1.25-42.89-8.38-64.16-8.38a79.89,79.89,0,0,0-13.94,1.16c-36.35,6.41-65.66,41-101.74,41q-2.55,0-5.16-.24c-16.68-1.55-32.26-11-48.87-11-.82,0-1.65,0-2.48.07-18.5,1.08-33.71,14.37-50.88,21.34a79.35,79.35,0,0,1-30.07,5.73c-28,0-56.45-13.36-77.31-32.85-12.79-12-30-27.35-44.7-43.93a408.79,408.79,0,0,0,3.39,133.19c33.05,11.13,67.52,22.32,102.52,22.32a140.76,140.76,0,0,0,56.8-11.47c26.5-11.49,50.38-30.69,79-34.46a87.33,87.33,0,0,1,11.54-.73c23.08,0,46.48,7.77,69.26,7.77a76.9,76.9,0,0,0,20.47-2.56c36.75-10.06,59.22-50.75,96.25-59.69a73.38,73.38,0,0,1,17.19-1.92c24.26,0,49.28,9.74,73.28,9.74a67.68,67.68,0,0,0,21.66-3.28c27.41-9.16,45.24-38.16,73.3-45.11a70,70,0,0,1,16.88-1.8c9.33,0,18.79,1.15,28.16,1.15a80.75,80.75,0,0,0,11.84-.79c23.72-3.54,43.6-20.81,56.11-41.27,11.9-19.46,29.51-45.26,36.46-67.69a403.05,403.05,0,0,0-36.38-68.92Z"/></g></svg>